<?xml version="1.0" encoding="UTF-8"?>
<svg id="enterscreencircle" data-name="Layer 1" xmlns="http://www.w3.org/2000/svg" viewBox="0 0 197.75 181.06">
  <defs>
    <style>
      .cls-1 {
        fill: none;
        stroke: #901c1d;
        stroke-miterlimit: 10;
        stroke-width: 6px;
      }
    </style>
  </defs>
  <path class="cls-1" d="m28.49,46.53c-4.63-.87-9.27,2.29-11.61,6.39-2.34,4.09-2.87,8.94-3.33,13.63-2.89,29.87-3.08,63.65,17.68,85.32,10.46,10.92,24.95,17.1,39.58,20.93,22.34,5.86,45.95,6.84,68.7,2.85,11.9-2.08,23.86-5.66,33.46-13,13.21-10.1,20.61-26.65,21.65-43.24,1.04-16.59-3.79-33.16-11.51-47.89C161.69,30.62,116.64,3.22,70.47,3c-14.89-.07-30.13,2.61-42.94,10.22S4.65,33.86,2.98,48.66"/>
</svg>